<?xml version="1.0" encoding="UTF-8"?>
<svg id="Layer_2" data-name="Layer 2" xmlns="http://www.w3.org/2000/svg" viewBox="0 0 13 13">
  <defs>
    <style>
      .cls-1 {
        fill: #00bfbf;
        stroke-width: 0px;
      }
    </style>
  </defs>
  <g id="Layer_1-2" data-name="Layer 1">
    <g>
      <path class="cls-1" d="m11.82,0H2.36c-.44,0-.81.24-1.02.59h9.88c.65,0,1.18.53,1.18,1.18v9.88c.35-.2.59-.58.59-1.02V1.18c0-.65-.53-1.18-1.18-1.18Z"/>
      <path class="cls-1" d="m10.64,1.18H1.18c-.65,0-1.18.53-1.18,1.18v9.45c0,.65.53,1.18,1.18,1.18h9.45c.65,0,1.18-.53,1.18-1.18V2.36c0-.65-.53-1.18-1.18-1.18Zm-4.73,10.64c-2.61,0-4.73-2.12-4.73-4.73S3.3,2.36,5.91,2.36s4.73,2.12,4.73,4.73-2.12,4.73-4.73,4.73Z"/>
      <path class="cls-1" d="m5.91,5.32c-.98,0-1.77.8-1.77,1.77s.8,1.77,1.77,1.77,1.77-.8,1.77-1.77-.8-1.77-1.77-1.77h0Zm0,2.36c-.33,0-.59-.27-.59-.59s.27-.59.59-.59.59.27.59.59c0,.33-.27.59-.59.59h0Zm0-3.55c.16,0,.3-.13.3-.3s-.13-.3-.3-.3h0c-.95,0-1.84.37-2.51,1.04-.12.12-.12.3,0,.42.06.06.13.09.21.09.08,0,.15-.03.21-.09.56-.56,1.3-.87,2.09-.87,0,0,0,0,0,0h0Z"/>
    </g>
  </g>
</svg>