<?xml version="1.0" encoding="UTF-8"?>
<svg id="Layer_2" data-name="Layer 2" xmlns="http://www.w3.org/2000/svg" viewBox="0 0 10 16.24">
  <defs>
    <style>
      .cls-1 {
        fill: #00bfbf;
        fill-rule: evenodd;
        stroke-width: 0px;
      }
    </style>
  </defs>
  <g id="Layer_1-2" data-name="Layer 1">
    <g>
      <path class="cls-1" d="m4.99,11.35c-2.75,0-4.99-2.01-4.99-4.48,0-.15.14-.28.31-.28s.31.12.31.28c0,2.17,1.97,3.93,4.38,3.93s4.39-1.76,4.39-3.93c0-.15.14-.28.31-.28s.31.12.31.28c0,2.48-2.24,4.48-5.01,4.48Z"/>
      <path class="cls-1" d="m4.99,10.23c-2.07,0-3.75-1.51-3.75-3.37v-3.49C1.24,1.51,2.92,0,4.99,0s3.76,1.51,3.76,3.37v3.49c0,1.86-1.69,3.37-3.76,3.37ZM4.99.55C3.26.55,1.86,1.82,1.86,3.37v3.49c0,1.56,1.4,2.82,3.13,2.82s3.15-1.26,3.15-2.82v-3.49c0-1.55-1.41-2.82-3.15-2.82Z"/>
      <path class="cls-1" d="m4.99,9.12c-1.38,0-2.52-1.01-2.52-2.26v-3.49c0-1.25,1.14-2.26,2.52-2.26.17,0,.31.12.31.28s-.14.28-.31.28c-1.04,0-1.9.76-1.9,1.7v3.49c0,.94.86,1.7,1.9,1.7.17,0,.31.12.31.28s-.14.28-.31.28Zm2.21-1.98c-.17,0-.31-.12-.31-.28v-3.49c0-.15.14-.28.31-.28s.31.12.31.28v3.49c0,.15-.14.28-.31.28Z"/>
      <path class="cls-1" d="m6.39,15.02h-2.77c-.1,0-.18-.04-.24-.1-.05-.07-.07-.14-.06-.23l.71-3.72c.02-.14.18-.25.35-.22.17.02.28.16.26.31l-.65,3.4h2.05l-.65-3.4c-.03-.15.09-.3.26-.31.16-.03.32.08.35.22l.71,3.72c.01.09-.01.16-.07.23-.05.06-.14.1-.23.1Z"/>
      <path class="cls-1" d="m8.26,16.24H1.74c-.17,0-.31-.12-.31-.28v-1.22c0-.15.14-.28.31-.28h6.51c.17,0,.31.12.31.28v1.22c0,.15-.14.28-.31.28Zm-6.21-.55h5.9v-.67H2.05v.67Z"/>
      <path class="cls-1" d="m7.21,4.38h-1.51c-.17,0-.31-.12-.31-.28s.14-.28.31-.28h1.51c.17,0,.31.12.31.28s-.14.28-.31.28Zm0,1.02h-1.51c-.17,0-.31-.12-.31-.28s.14-.28.31-.28h1.51c.17,0,.31.12.31.28s-.14.28-.31.28Zm0,1.02h-1.51c-.17,0-.31-.12-.31-.28s.14-.28.31-.28h1.51c.17,0,.31.12.31.28s-.14.28-.31.28Z"/>
    </g>
  </g>
</svg>