<?xml version="1.0" encoding="UTF-8"?>
<svg id="Layer_2" data-name="Layer 2" xmlns="http://www.w3.org/2000/svg" viewBox="0 0 70.47 70.48">
  <defs>
    <style>
      .cls-1 {
        fill: #0070d6;
        stroke-width: 0px;
      }
    </style>
  </defs>
  <g id="Recently_Added" data-name="Recently Added">
    <g>
      <path class="cls-1" d="m43,27.47c-.83-.84-1.76-1.58-2.76-2.22-2.65-1.69-5.72-2.6-8.87-2.6-4.36,0-8.55,1.73-11.63,4.82l-14.94,14.95C1.73,45.5,0,49.68,0,54.03c0,9.08,7.35,16.45,16.43,16.45,4.36.02,8.54-1.71,11.62-4.79l12.33-12.33c.46-.46.46-1.2,0-1.66-.22-.22-.53-.35-.84-.35h-.47c-2.58,0-5.13-.49-7.52-1.46-.44-.18-.95-.08-1.28.26l-8.87,8.88c-2.75,2.75-7.22,2.75-9.97,0-2.75-2.75-2.75-7.22,0-9.97l15-14.99c2.75-2.75,7.21-2.75,9.96,0,1.85,1.75,4.75,1.75,6.6,0,.8-.8,1.28-1.86,1.36-2.98.09-1.35-.41-2.66-1.36-3.62h0Z"/>
      <path class="cls-1" d="m65.65,4.82c-6.42-6.42-16.83-6.42-23.25,0l-12.32,12.31c-.34.34-.44.85-.25,1.29.19.44.62.73,1.1.72h.43c2.57,0,5.12.49,7.5,1.47.44.18.95.08,1.28-.26l8.84-8.83c2.75-2.75,7.22-2.75,9.97,0,2.75,2.75,2.75,7.22,0,9.97l-11.02,11-.09.11-3.85,3.83c-2.75,2.75-7.21,2.75-9.96,0-1.85-1.75-4.75-1.75-6.6,0-.8.8-1.29,1.87-1.36,3.01-.09,1.35.41,2.66,1.36,3.62,1.36,1.37,2.95,2.48,4.7,3.29.25.12.49.21.74.32.25.11.5.19.75.28.25.09.5.18.75.25l.69.19c.47.12.94.21,1.42.29.58.09,1.16.14,1.75.16h.89l.7-.08c.26-.01.53-.07.83-.07h.4l.81-.12.38-.07.68-.14h.13c2.88-.72,5.52-2.22,7.62-4.32l14.95-14.95c6.42-6.42,6.42-16.83,0-23.25h0Z"/>
    </g>
  </g>
</svg>