<?xml version="1.0" encoding="UTF-8"?>
<svg id="Layer_2" data-name="Layer 2" xmlns="http://www.w3.org/2000/svg" viewBox="0 0 14 12.54">
  <defs>
    <style>
      .cls-1 {
        fill: #00bfbf;
        stroke-width: 0px;
      }
    </style>
  </defs>
  <g id="Layer_1-2" data-name="Layer 1">
    <g>
      <path class="cls-1" d="m12.83,2.81V.26c0-.14-.13-.26-.29-.26s-.29.12-.29.26v1.88c-1.28-1.31-3.16-2.14-5.25-2.14C3.14,0,0,2.81,0,6.27s3.14,6.27,7,6.27,7-2.81,7-6.27c0-1.28-.43-2.47-1.17-3.46Zm-5.83,9.21c-3.54,0-6.42-2.58-6.42-5.75S3.46.52,7,.52c2.17,0,4.09.97,5.25,2.45v3.97l-1.46,1.31-.38-.34c-.11-.1-.3-.1-.41,0l-1.75,1.57c-.11.1-.11.27,0,.37l.38.34-.38.34c-.11.1-.11.27,0,.37.05.05.13.08.21.08.07,0,.15-.03.21-.08l.38-.34.38.34c.05.05.13.08.21.08.07,0,.15-.03.21-.08l1.75-1.57c.11-.1.11-.27,0-.37l-.38-.34,1.54-1.38c.05-.05.09-.12.09-.18v-3.16c.37.73.58,1.53.58,2.38,0,3.17-2.88,5.75-6.42,5.75Zm3.96-2.87l-1.34,1.2-.75-.68,1.34-1.2.75.68Z"/>
      <path class="cls-1" d="m9.92,6.27c0-1.44-1.31-2.61-2.92-2.61s-2.92,1.17-2.92,2.61,1.31,2.61,2.92,2.61,2.92-1.17,2.92-2.61Zm-2.92,2.09c-1.29,0-2.33-.94-2.33-2.09s1.05-2.09,2.33-2.09,2.33.94,2.33,2.09-1.05,2.09-2.33,2.09Z"/>
      <ellipse class="cls-1" cx="7" cy="6.27" rx=".58" ry=".52"/>
      <path class="cls-1" d="m7.29,1.83c0-.14-.13-.26-.29-.26,0,0,0,0,0,0-1.41,0-2.73.49-3.72,1.38-.11.1-.11.27,0,.37.06.05.13.08.21.08s.15-.03.21-.08c.88-.79,2.06-1.23,3.31-1.23.16,0,.29-.12.29-.26h0Z"/>
    </g>
  </g>
</svg>